<svg xmlns="http://www.w3.org/2000/svg" viewBox="0 0 400 80" width="400" height="80"><g transform="translate(8, 8)"><path d="M 15 5 C 20 0, 30 0, 32 8 C 34 16, 28 20, 22 18 C 16 16, 10 10, 15 5 Z" fill="#E30613"/><path d="M 35 12 C 40 8, 48 10, 46 18 C 44 26, 36 28, 32 22 C 28 16, 30 16, 35 12 Z" fill="#0066B3"/><path d="M 8 22 C 12 18, 20 20, 18 28 C 16 36, 8 38, 4 32 C 0 26, 4 26, 8 22 Z" fill="#FFCC00"/><path d="M 20 35 C 26 32, 32 36, 28 44 C 24 52, 16 50, 14 42 C 12 34, 14 38, 20 35 Z" fill="#009944"/><path d="M 38 28 C 44 26, 50 30, 48 38 C 46 46, 38 48, 34 42 C 30 36, 32 30, 38 28 Z" fill="#003D7A"/></g><text x="70" y="52" font-family="Arial, sans-serif" font-size="42" font-weight="bold" fill="#2D2D2D">Asteroidea</text><text x="72" y="68" font-family="Arial, sans-serif" font-size="11" font-weight="600" fill="#0066B3" letter-spacing="1">FUTURE IN MOTION</text></svg>
